<svg width="20" height="20" viewBox="0 0 20 20" fill="none" xmlns="http://www.w3.org/2000/svg">
<path fill-rule="evenodd" clip-rule="evenodd" d="M9.75 0C4.36522 0 0 4.36522 0 9.75C0 15.1348 4.36522 19.5 9.75 19.5C15.1348 19.5 19.5 15.1348 19.5 9.75C19.4943 4.36758 15.1324 0.0056839 9.75 0ZM3.375 4.51594C4.42763 5.79022 5.06927 7.35364 5.21531 9H1.53469C1.68268 7.35412 2.3241 5.79125 3.375 4.51594ZM10.5 9V1.53469C12.1814 1.68697 13.775 2.3538 15.0637 3.44438C13.7309 5.00633 12.9303 6.9523 12.7781 9H10.5ZM9 9H6.72188C6.5697 6.9523 5.76911 5.00633 4.43625 3.44438C5.72502 2.3538 7.31861 1.68697 9 1.53469V9ZM5.21531 10.5C5.06927 12.1464 4.42763 13.7098 3.375 14.9841C2.3241 13.7087 1.68268 12.1459 1.53469 10.5H5.21531ZM6.72188 10.5H9V17.9653C7.31861 17.813 5.72502 17.1462 4.43625 16.0556C5.76894 14.4936 6.5695 12.5477 6.72188 10.5ZM10.5 10.5H12.7781C12.9305 12.5477 13.7311 14.4936 15.0637 16.0556C13.775 17.1462 12.1814 17.813 10.5 17.9653V10.5ZM14.2847 10.5H17.9653C17.8173 12.1459 17.1759 13.7087 16.125 14.9841C15.0724 13.7098 14.4307 12.1464 14.2847 10.5ZM14.2847 9C14.4307 7.35364 15.0724 5.79022 16.125 4.51594C17.1759 5.79125 17.8173 7.35412 17.9653 9H14.2847Z" fill="#0D141C"/>
</svg>
