<svg width="20" height="20" viewBox="0 0 20 20" fill="none" xmlns="http://www.w3.org/2000/svg">
<path fill-rule="evenodd" clip-rule="evenodd" d="M9.75 0C4.36522 0 0 4.36522 0 9.75C0 15.1348 4.36522 19.5 9.75 19.5C15.1348 19.5 19.5 15.1348 19.5 9.75C19.4943 4.36758 15.1324 0.0056839 9.75 0ZM16.9237 13.8206H13.7719L12.9038 12.6244L14.0878 9.17625L15.4941 8.71781L17.9541 10.605C17.8377 11.7368 17.4868 12.8319 16.9237 13.8206ZM1.54875 10.605L4.00406 8.71875L5.41031 9.17719L6.59437 12.6253L5.72813 13.8206H2.57625C2.01258 12.8321 1.66104 11.7369 1.54406 10.605H1.54875ZM2.48625 5.8575L3.00281 7.60125L1.56656 8.69719C1.6939 7.70282 2.00277 6.74029 2.47781 5.8575H2.48625ZM7.96875 12L6.89437 8.87344L9.75 6.91031L12.6056 8.87344L11.5312 12H7.96875ZM16.5066 7.60125L17.0231 5.8575C17.4982 6.74029 17.807 7.70282 17.9344 8.69719L16.5066 7.60125ZM15.9253 4.28438L15.0338 7.29187L13.6209 7.75031L10.5 5.60531V4.14469L13.2272 2.26969C14.2544 2.75006 15.1723 3.43571 15.9244 4.28438H15.9253ZM11.4441 1.67531L9.75 2.83969L8.05594 1.67531C9.17322 1.44156 10.3268 1.44156 11.4441 1.67531ZM6.27281 2.26969L9 4.14469V5.60531L5.88 7.75031L4.46719 7.29187L3.57562 4.28438C4.32771 3.43571 5.24563 2.75006 6.27281 2.26969ZM3.67031 15.3206H5.58L6.25219 17.2209C5.27608 16.7616 4.39905 16.1161 3.67031 15.3206ZM8.0625 17.8247L6.94875 14.6916L7.81406 13.5H11.6859L12.5513 14.6916L11.4422 17.8247C10.3262 18.0586 9.17382 18.0586 8.05781 17.8247H8.0625ZM13.2525 17.2209L13.9247 15.3206H15.8344C15.1043 16.1166 14.2256 16.7621 13.2478 17.2209H13.2525Z" fill="#0D141C"/>
</svg>
